<?xml version="1.0" encoding="UTF-8"?>
<svg id="Layer_2" data-name="Layer 2" xmlns="http://www.w3.org/2000/svg" xmlns:xlink="http://www.w3.org/1999/xlink" viewBox="0 0 71.02 6.79">
  <defs>
    <style>
      .cls-1 {
        fill: url(#linear-gradient);
      }

      .cls-2 {
        fill: #231f20;
      }

      .cls-3 {
        fill: url(#radial-gradient);
      }

      .cls-4 {
        fill: none;
        stroke: #fff;
        stroke-miterlimit: 10;
        stroke-width: .25px;
      }
    </style>
    <linearGradient id="linear-gradient" x1=".05" y1="3.64" x2="74.39" y2="3.33" gradientUnits="userSpaceOnUse">
      <stop offset="0" stop-color="#fff"/>
      <stop offset=".03" stop-color="#e5e5e5"/>
      <stop offset=".09" stop-color="#b8b7b7"/>
      <stop offset=".15" stop-color="#908e8e"/>
      <stop offset=".22" stop-color="#6e6b6c"/>
      <stop offset=".29" stop-color="#524f50"/>
      <stop offset=".36" stop-color="#3d3a3a"/>
      <stop offset=".45" stop-color="#2e2a2b"/>
      <stop offset=".54" stop-color="#252122"/>
      <stop offset=".68" stop-color="#231f20"/>
    </linearGradient>
    <radialGradient id="radial-gradient" cx="35.05" cy="3.34" fx="50.51" fy="46.15" r="78.34" gradientTransform="translate(2.55 16.47) rotate(-23.1) scale(1 .2)" gradientUnits="userSpaceOnUse">
      <stop offset=".09" stop-color="#071e2f"/>
      <stop offset=".36" stop-color="#eba827"/>
      <stop offset=".5" stop-color="#eba829"/>
      <stop offset=".56" stop-color="#edac30"/>
      <stop offset=".61" stop-color="#f0b23c"/>
      <stop offset=".64" stop-color="#f4ba4e"/>
      <stop offset=".68" stop-color="#fac565"/>
      <stop offset=".68" stop-color="#f0be62"/>
      <stop offset=".72" stop-color="#bb9956"/>
      <stop offset=".75" stop-color="#8c784b"/>
      <stop offset=".79" stop-color="#655c42"/>
      <stop offset=".83" stop-color="#44453b"/>
      <stop offset=".87" stop-color="#2b3435"/>
      <stop offset=".91" stop-color="#192731"/>
      <stop offset=".95" stop-color="#0f202e"/>
      <stop offset="1" stop-color="#0c1e2e"/>
    </radialGradient>
  </defs>
  <g id="Layer_1-2" data-name="Layer 1">
    <g>
      <g>
        <path class="cls-2" d="m3.46,0l1.27,4.26L7.14,0h2.42l-.92,6.79h-2.08l.58-3.58-1.84,3.12h-1.85l-.92-3-.46,3.46H0L.92.46l-.47-.46h3Z"/>
        <path class="cls-2" d="m17.93,0c.11,0,.22.02.31.06.1.04.18.1.25.17.07.07.11.16.14.25.02.1.02.2-.01.32l-.8,5.99h-6.46c-.11,0-.22-.02-.31-.06s-.18-.1-.25-.17c-.07-.07-.11-.16-.14-.26-.02-.1-.02-.21.01-.32l.8-5.99h6.46Zm-4.38,1.15l-.58,4.49h2.65l.68-4.49h-2.76Z"/>
        <path class="cls-2" d="m27,0c.11,0,.22.02.31.06.1.04.18.1.25.17.07.07.11.16.14.25.02.1.02.2-.01.32l-.8,5.99h-6.46c-.11,0-.22-.02-.31-.06s-.18-.1-.25-.17c-.07-.07-.11-.16-.14-.26-.02-.1-.02-.21.01-.32l.8-5.99h6.46Zm-4.38,1.15l-.58,4.49h2.65l.68-4.49h-2.76Z"/>
        <path class="cls-2" d="m32.02,0l2.41,4.26.58-4.26h1.97l-.92,6.79h-2.3l-2.3-4.15-.58,4.15h-2.08l.92-6.34-.47-.46h2.77Z"/>
        <path class="cls-2" d="m46.98,6.79l.8-5.64h-2.53l.12-1.15h7.37l-.23,1.15h-2.42l-.8,5.64h-2.3Z"/>
        <path class="cls-1" d="m54.44,1.15l.23-1.15h7.26l-.23,1.15-5.06,4.49h4.49l-.12,1.15h-7.37l.23-1.15,5.18-4.49h-4.61Z"/>
        <path class="cls-2" d="m65.94,0l-.8,5.64h2.76l.82-5.3-.47-.34h2.77l-.92,6.79h-6.56c-.23,0-.41-.08-.52-.23-.12-.15-.17-.34-.17-.58l.8-5.65-.35-.34h2.65Z"/>
      </g>
      <g>
        <path class="cls-3" d="m3.46,0l1.27,4.26L7.14,0h2.42l-.92,6.79h-2.08l.58-3.58-1.84,3.12h-1.85l-.92-3-.46,3.46H0L.92.46l-.47-.46h3Z"/>
        <path class="cls-3" d="m17.93,0c.11,0,.22.02.31.06.1.04.18.1.25.17.07.07.11.16.14.25.02.1.02.2-.01.32l-.8,5.99h-6.46c-.11,0-.22-.02-.31-.06s-.18-.1-.25-.17c-.07-.07-.11-.16-.14-.26-.02-.1-.02-.21.01-.32l.8-5.99h6.46Zm-4.38,1.15l-.58,4.49h2.65l.68-4.49h-2.76Z"/>
        <path class="cls-3" d="m27,0c.11,0,.22.02.31.06.1.04.18.1.25.17.07.07.11.16.14.25.02.1.02.2-.01.32l-.8,5.99h-6.46c-.11,0-.22-.02-.31-.06s-.18-.1-.25-.17c-.07-.07-.11-.16-.14-.26-.02-.1-.02-.21.01-.32l.8-5.99h6.46Zm-4.38,1.15l-.58,4.49h2.65l.68-4.49h-2.76Z"/>
        <path class="cls-3" d="m32.02,0l2.41,4.26.58-4.26h1.97l-.92,6.79h-2.3l-2.3-4.15-.58,4.15h-2.08l.92-6.34-.47-.46h2.77Z"/>
        <path class="cls-3" d="m46.98,6.79l.8-5.64h-2.53l.12-1.15h7.37l-.23,1.15h-2.42l-.8,5.64h-2.3Z"/>
        <path class="cls-3" d="m54.44,1.15l.23-1.15h7.26l-.23,1.15-5.06,4.49h4.49l-.12,1.15h-7.37l.23-1.15,5.18-4.49h-4.61Z"/>
        <path class="cls-3" d="m65.94,0l-.8,5.64h2.76l.82-5.3-.47-.34h2.77l-.92,6.79h-6.56c-.23,0-.41-.08-.52-.23-.12-.15-.17-.34-.17-.58l.8-5.65-.35-.34h2.65Z"/>
      </g>
      <g>
        <path class="cls-4" d="m3.46,0l1.27,4.26L7.14,0h2.42l-.92,6.79h-2.08l.58-3.58-1.84,3.12h-1.85l-.92-3-.46,3.46H0L.92.46l-.47-.46h3Z"/>
        <path class="cls-4" d="m17.93,0c.11,0,.22.02.31.06.1.04.18.1.25.17.07.07.11.16.14.25.02.1.02.2-.01.32l-.8,5.99h-6.46c-.11,0-.22-.02-.31-.06s-.18-.1-.25-.17c-.07-.07-.11-.16-.14-.26-.02-.1-.02-.21.01-.32l.8-5.99h6.46Zm-4.38,1.15l-.58,4.49h2.65l.68-4.49h-2.76Z"/>
        <path class="cls-4" d="m27,0c.11,0,.22.02.31.06.1.04.18.1.25.17.07.07.11.16.14.25.02.1.02.2-.01.32l-.8,5.99h-6.46c-.11,0-.22-.02-.31-.06s-.18-.1-.25-.17c-.07-.07-.11-.16-.14-.26-.02-.1-.02-.21.01-.32l.8-5.99h6.46Zm-4.38,1.15l-.58,4.49h2.65l.68-4.49h-2.76Z"/>
        <path class="cls-4" d="m32.02,0l2.41,4.26.58-4.26h1.97l-.92,6.79h-2.3l-2.3-4.15-.58,4.15h-2.08l.92-6.34-.47-.46h2.77Z"/>
        <path class="cls-4" d="m46.98,6.79l.8-5.64h-2.53l.12-1.15h7.37l-.23,1.15h-2.42l-.8,5.64h-2.3Z"/>
        <path class="cls-4" d="m54.44,1.15l.23-1.15h7.26l-.23,1.15-5.06,4.49h4.49l-.12,1.15h-7.37l.23-1.15,5.18-4.49h-4.61Z"/>
        <path class="cls-4" d="m65.94,0l-.8,5.64h2.76l.82-5.3-.47-.34h2.77l-.92,6.79h-6.56c-.23,0-.41-.08-.52-.23-.12-.15-.17-.34-.17-.58l.8-5.65-.35-.34h2.65Z"/>
      </g>
    </g>
  </g>
</svg>