{
  "accessors": [
    {
      "name": "LowPoly.004_CUGP_Layer.016-Mesh_0_positions",
      "componentType": 5126,
      "count": 52868,
      "min": [
        -2.528857946395874,
        -0.016352999955415726,
        -1.4657809734344482
      ],
      "max": [
        2.527811050415039,
        7.741743087768555,
        2.1827540397644043
      ],
      "type": "VEC3",
      "bufferView": 0,
      "byteOffset": 0
    },
    {
      "name": "LowPoly.004_CUGP_Layer.016-Mesh_0_normals",
      "componentType": 5126,
      "count": 52868,
      "min": [
        -1,
        -1,
        -1
      ],
      "max": [
        1,
        1,
        1
      ],
      "type": "VEC3",
      "bufferView": 1,
      "byteOffset": 0
    },
    {
      "name": "LowPoly.004_CUGP_Layer.016-Mesh_0_indices",
      "componentType": 5123,
      "count": 280755,
      "min": [
        0
      ],
      "max": [
        52867
      ],
      "type": "SCALAR",
      "bufferView": 2,
      "byteOffset": 0
    }
  ],
  "asset": {
    "generator": "obj2gltf",
    "version": "2.0"
  },
  "buffers": [
    {
      "name": "20-sunTsuOptimized",
      "byteLength": 1830344,
      "uri": "data:application/octet-stream;base64,"
    }
  ],
  "bufferViews": [
    {
      "name": "bufferView_0",
      "buffer": 0,
      "byteLength": 634416,
      "byteOffset": 0,
      "byteStride": 12,
      "target": 34962
    },
    {
      "name": "bufferView_1",
      "buffer": 0,
      "byteLength": 634416,
      "byteOffset": 634416,
      "byteStride": 12,
      "target": 34962
    },
    {
      "name": "bufferView_2",
      "buffer": 0,
      "byteLength": 561512,
      "byteOffset": 1268832,
      "target": 34963
    }
  ],
  "materials": [
    {
      "name": "None",
      "pbrMetallicRoughness": {
        "baseColorFactor": [
          0.5,
          0.5,
          0.5,
          1
        ],
        "metallicFactor": 0,
        "roughnessFactor": 1
      },
      "emissiveFactor": [
        0,
        0,
        0
      ],
      "alphaMode": "OPAQUE",
      "doubleSided": false
    }
  ],
  "meshes": [
    {
      "name": "LowPoly.004_CUGP_Layer.016-Mesh",
      "primitives": [
        {
          "attributes": {
            "POSITION": 0,
            "NORMAL": 1
          },
          "indices": 2,
          "material": 0,
          "mode": 4
        }
      ]
    }
  ],
  "nodes": [
    {
      "name": "LowPoly.004_CUGP_Layer.016",
      "mesh": 0
    }
  ],
  "scene": 0,
  "scenes": [
    {
      "nodes": [
        0
      ]
    }
  ]
}
